<?xml version="1.0" standalone="no"?><!DOCTYPE svg PUBLIC "-//W3C//DTD SVG 1.1//EN" "http://www.w3.org/Graphics/SVG/1.1/DTD/svg11.dtd"><svg t="1554871833871" class="icon" style="" viewBox="0 0 1024 1024" version="1.1" xmlns="http://www.w3.org/2000/svg" p-id="1268" xmlns:xlink="http://www.w3.org/1999/xlink" width="32" height="32"><defs><style type="text/css"></style></defs><path d="M797.465 379.937H706.36V240.522c0-62.315-50.515-112.832-112.832-112.832H242.054c-62.315 0-112.831 50.517-112.831 112.832v351.473c0 62.315 50.516 112.83 112.831 112.83H385.04v87.54c0 55.352 44.872 100.223 100.226 100.223h312.2c55.354 0 100.225-44.872 100.225-100.224V480.163c0-55.353-44.871-100.226-100.225-100.226zM242.055 641.01c-27.028 0-49.016-21.988-49.016-49.014V240.522c0-27.028 21.988-49.016 49.015-49.016h351.473c27.028 0 49.016 21.988 49.016 49.016v139.415H485.265c-55.354 0-100.226 44.872-100.226 100.225v160.847H242.054z m400.488-197.255v148.24c0 27.027-21.988 49.015-49.016 49.015H448.854V480.163c0-20.076 16.333-36.41 36.41-36.41h157.279z m191.331 348.61c0 20.076-16.333 36.409-36.409 36.409h-312.2c-20.077 0-36.41-16.333-36.41-36.409v-87.538h144.671c62.316 0 112.832-50.516 112.832-112.831V443.754h91.106c20.076 0 36.41 16.333 36.41 36.409v312.201z" p-id="1269"></path></svg>